<svg width="244" height="96" viewBox="0 0 244 96" fill="none" xmlns="http://www.w3.org/2000/svg">
<path d="M116.223 40.29C114.754 40.29 113.42 40.1353 112.221 39.826C111.042 39.5167 109.978 39.0817 109.031 38.521C108.103 37.941 107.252 37.2643 106.479 36.491L109.176 32.895C110.394 34.113 111.612 34.9637 112.83 35.447C114.067 35.911 115.295 36.143 116.513 36.143C117.074 36.143 117.615 36.085 118.137 35.969C118.678 35.8337 119.113 35.621 119.442 35.331C119.771 35.041 119.935 34.664 119.935 34.2C119.935 33.8907 119.848 33.6297 119.674 33.417C119.5 33.185 119.258 32.9917 118.949 32.837C118.64 32.6823 118.272 32.547 117.847 32.431C117.441 32.315 117.006 32.2183 116.542 32.141C116.097 32.0443 115.624 31.9573 115.121 31.88C113.903 31.6867 112.82 31.416 111.873 31.068C110.945 30.72 110.162 30.285 109.524 29.763C108.886 29.241 108.393 28.632 108.045 27.936C107.716 27.24 107.552 26.4473 107.552 25.558C107.552 24.6107 107.774 23.7503 108.219 22.977C108.683 22.1843 109.311 21.5173 110.104 20.976C110.897 20.4153 111.815 19.99 112.859 19.7C113.903 19.3907 115.005 19.236 116.165 19.236C117.557 19.236 118.765 19.3713 119.79 19.642C120.834 19.9127 121.743 20.2993 122.516 20.802C123.289 21.2853 123.937 21.8557 124.459 22.513L121.704 25.645C121.221 25.1617 120.679 24.7557 120.08 24.427C119.481 24.0983 118.843 23.847 118.166 23.673C117.509 23.499 116.842 23.412 116.165 23.412C115.488 23.412 114.889 23.4893 114.367 23.644C113.845 23.7793 113.429 23.9823 113.12 24.253C112.811 24.5237 112.656 24.862 112.656 25.268C112.656 25.616 112.782 25.9157 113.033 26.167C113.284 26.399 113.613 26.602 114.019 26.776C114.444 26.95 114.918 27.095 115.44 27.211C115.962 27.3077 116.484 27.3947 117.006 27.472C118.108 27.646 119.142 27.878 120.109 28.168C121.076 28.4387 121.926 28.806 122.661 29.27C123.396 29.7147 123.966 30.2947 124.372 31.01C124.797 31.706 125.01 32.576 125.01 33.62C125.01 35.0313 124.623 36.2397 123.85 37.245C123.096 38.231 122.062 38.985 120.747 39.507C119.432 40.029 117.924 40.29 116.223 40.29ZM140.519 40.29C138.914 40.29 137.416 40.0387 136.024 39.536C134.651 39.014 133.443 38.289 132.399 37.361C131.374 36.433 130.582 35.331 130.021 34.055C129.46 32.7597 129.18 31.329 129.18 29.763C129.18 28.2357 129.47 26.834 130.05 25.558C130.649 24.282 131.461 23.18 132.486 22.252C133.511 21.324 134.719 20.599 136.111 20.077C137.503 19.555 139.001 19.294 140.606 19.294C141.708 19.294 142.771 19.4293 143.796 19.7C144.84 19.9707 145.807 20.3477 146.696 20.831C147.585 21.3143 148.339 21.8653 148.958 22.484L146.029 26.138C145.565 25.6933 145.062 25.3067 144.521 24.978C143.98 24.63 143.371 24.3593 142.694 24.166C142.017 23.9533 141.273 23.847 140.461 23.847C139.668 23.847 138.895 23.9823 138.141 24.253C137.387 24.5237 136.72 24.92 136.14 25.442C135.56 25.9447 135.096 26.573 134.748 27.327C134.419 28.0617 134.255 28.893 134.255 29.821C134.255 30.749 134.429 31.5803 134.777 32.315C135.125 33.0497 135.599 33.678 136.198 34.2C136.817 34.7027 137.532 35.0893 138.344 35.36C139.156 35.6307 140.036 35.766 140.983 35.766C141.814 35.766 142.568 35.65 143.245 35.418C143.922 35.186 144.531 34.9057 145.072 34.577C145.613 34.229 146.097 33.8617 146.522 33.475L148.871 37.274C148.349 37.7767 147.653 38.26 146.783 38.724C145.913 39.188 144.937 39.565 143.854 39.855C142.771 40.145 141.66 40.29 140.519 40.29ZM154.19 40V19.7H164.369C165.8 19.7 167.057 19.9803 168.139 20.541C169.222 21.0823 170.063 21.8363 170.662 22.803C171.262 23.7697 171.561 24.891 171.561 26.167C171.561 27.4623 171.242 28.6223 170.604 29.647C169.986 30.6523 169.125 31.4547 168.023 32.054C166.941 32.634 165.723 32.924 164.369 32.924H158.888V40H154.19ZM166.892 40L161.034 30.836L166.138 30.111L172.576 40H166.892ZM158.888 29.154H163.876C164.418 29.154 164.891 29.038 165.297 28.806C165.723 28.574 166.051 28.255 166.283 27.849C166.535 27.443 166.66 26.9693 166.66 26.428C166.66 25.906 166.525 25.4517 166.254 25.065C166.003 24.659 165.645 24.3497 165.181 24.137C164.737 23.9243 164.205 23.818 163.586 23.818H158.888V29.154ZM188.044 40.29C186.342 40.29 184.796 40.029 183.404 39.507C182.031 38.985 180.823 38.2503 179.779 37.303C178.754 36.3363 177.961 35.215 177.401 33.939C176.84 32.663 176.56 31.271 176.56 29.763C176.56 28.255 176.84 26.863 177.401 25.587C177.961 24.311 178.754 23.1993 179.779 22.252C180.823 21.2853 182.031 20.541 183.404 20.019C184.796 19.497 186.333 19.236 188.015 19.236C189.677 19.236 191.205 19.497 192.597 20.019C193.989 20.541 195.197 21.2853 196.222 22.252C197.246 23.1993 198.039 24.311 198.6 25.587C199.16 26.863 199.441 28.255 199.441 29.763C199.441 31.2517 199.16 32.6437 198.6 33.939C198.039 35.215 197.246 36.3363 196.222 37.303C195.197 38.2503 193.989 38.985 192.597 39.507C191.205 40.029 189.687 40.29 188.044 40.29ZM188.015 35.65C188.943 35.65 189.793 35.505 190.567 35.215C191.359 34.925 192.046 34.519 192.626 33.997C193.206 33.4557 193.65 32.8273 193.96 32.112C194.269 31.3967 194.424 30.6137 194.424 29.763C194.424 28.9123 194.269 28.1293 193.96 27.414C193.65 26.6987 193.206 26.08 192.626 25.558C192.046 25.0167 191.359 24.601 190.567 24.311C189.793 24.021 188.943 23.876 188.015 23.876C187.087 23.876 186.226 24.021 185.434 24.311C184.66 24.601 183.974 25.0167 183.375 25.558C182.795 26.0993 182.35 26.7277 182.041 27.443C181.751 28.1583 181.606 28.9317 181.606 29.763C181.606 30.6137 181.751 31.3967 182.041 32.112C182.35 32.8273 182.795 33.4557 183.375 33.997C183.974 34.519 184.66 34.925 185.434 35.215C186.226 35.505 187.087 35.65 188.015 35.65ZM205.195 40V19.7H210.125V35.65H220.797V40H205.195ZM226.322 40V19.7H231.252V35.65H241.924V40H226.322ZM108.538 76V55.7H117.963C119.606 55.7 121.095 55.961 122.429 56.483C123.763 56.9857 124.904 57.701 125.851 58.629C126.818 59.557 127.552 60.6397 128.055 61.877C128.558 63.095 128.809 64.4193 128.809 65.85C128.809 67.3 128.558 68.6437 128.055 69.881C127.552 71.1183 126.818 72.1913 125.851 73.1C124.904 74.0087 123.763 74.724 122.429 75.246C121.095 75.7487 119.606 76 117.963 76H108.538ZM113.468 72.636L112.801 71.65H117.818C118.785 71.65 119.635 71.505 120.37 71.215C121.105 70.9057 121.714 70.49 122.197 69.968C122.7 69.446 123.086 68.837 123.357 68.141C123.628 67.445 123.763 66.6813 123.763 65.85C123.763 65.038 123.628 64.284 123.357 63.588C123.086 62.8727 122.7 62.254 122.197 61.732C121.714 61.21 121.105 60.804 120.37 60.514C119.635 60.2047 118.785 60.05 117.818 60.05H112.714L113.468 59.122V72.636ZM144.657 76.29C142.956 76.29 141.409 76.029 140.017 75.507C138.644 74.985 137.436 74.2503 136.392 73.303C135.367 72.3363 134.575 71.215 134.014 69.939C133.453 68.663 133.173 67.271 133.173 65.763C133.173 64.255 133.453 62.863 134.014 61.587C134.575 60.311 135.367 59.1993 136.392 58.252C137.436 57.2853 138.644 56.541 140.017 56.019C141.409 55.497 142.946 55.236 144.628 55.236C146.291 55.236 147.818 55.497 149.21 56.019C150.602 56.541 151.81 57.2853 152.835 58.252C153.86 59.1993 154.652 60.311 155.213 61.587C155.774 62.863 156.054 64.255 156.054 65.763C156.054 67.2517 155.774 68.6437 155.213 69.939C154.652 71.215 153.86 72.3363 152.835 73.303C151.81 74.2503 150.602 74.985 149.21 75.507C147.818 76.029 146.3 76.29 144.657 76.29ZM144.628 71.65C145.556 71.65 146.407 71.505 147.18 71.215C147.973 70.925 148.659 70.519 149.239 69.997C149.819 69.4557 150.264 68.8273 150.573 68.112C150.882 67.3967 151.037 66.6137 151.037 65.763C151.037 64.9123 150.882 64.1293 150.573 63.414C150.264 62.6987 149.819 62.08 149.239 61.558C148.659 61.0167 147.973 60.601 147.18 60.311C146.407 60.021 145.556 59.876 144.628 59.876C143.7 59.876 142.84 60.021 142.047 60.311C141.274 60.601 140.587 61.0167 139.988 61.558C139.408 62.0993 138.963 62.7277 138.654 63.443C138.364 64.1583 138.219 64.9317 138.219 65.763C138.219 66.6137 138.364 67.3967 138.654 68.112C138.963 68.8273 139.408 69.4557 139.988 69.997C140.587 70.519 141.274 70.925 142.047 71.215C142.84 71.505 143.7 71.65 144.628 71.65ZM165.524 76L159.028 55.7H164.103L167.293 66.053C167.428 66.517 167.554 67.0003 167.67 67.503C167.805 67.9863 167.921 68.489 168.018 69.011C168.134 69.5137 168.231 69.9873 168.308 70.432C168.385 70.8767 168.443 71.244 168.482 71.534H167.67C167.786 70.896 167.912 70.2773 168.047 69.678C168.182 69.0787 168.327 68.4793 168.482 67.88C168.656 67.2807 168.849 66.6813 169.062 66.082L172.136 58.339H176.138L179.154 66.053C179.405 66.7103 179.628 67.358 179.821 67.996C180.034 68.634 180.208 69.243 180.343 69.823C180.478 70.3837 180.565 70.9153 180.604 71.418L179.879 71.505C179.918 71.1763 179.956 70.8477 179.995 70.519C180.034 70.171 180.082 69.8133 180.14 69.446C180.198 69.0787 180.266 68.7113 180.343 68.344C180.42 67.9767 180.507 67.5997 180.604 67.213C180.72 66.807 180.836 66.401 180.952 65.995L184.345 55.7H189.246L182.402 76H178.632L173.615 63.936L174.282 63.994L169.526 76H165.524ZM193.726 76V55.7H198.25L210.517 70.2L209.676 70.055C209.56 69.3783 209.473 68.7307 209.415 68.112C209.357 67.4933 209.299 66.894 209.241 66.314C209.202 65.734 209.163 65.154 209.125 64.574C209.105 63.994 209.096 63.385 209.096 62.747C209.096 62.109 209.096 61.4323 209.096 60.717V55.7H213.881V76H209.299L196.568 61.036L197.931 61.239C197.989 61.9157 198.047 62.5247 198.105 63.066C198.182 63.6073 198.24 64.1197 198.279 64.603C198.337 65.067 198.375 65.5407 198.395 66.024C198.433 66.488 198.462 66.981 198.482 67.503C198.501 68.025 198.511 68.5953 198.511 69.214V76H193.726Z" fill="white"/>
<rect x="5" y="5" width="93.3333" height="90.2222" rx="8" fill="#A3AFBF"/>
<rect x="0.666668" width="93.3333" height="90.2222" rx="8" fill="#2C75E1"/>
<rect x="83" y="11" width="5" height="68" rx="2.33333" fill="#F7F5F5"/>
<rect x="84" y="52" width="3.11111" height="26.4444" rx="1.5" fill="#2C75E1"/>
<path d="M29.223 37.29C27.7537 37.29 26.4197 37.1353 25.221 36.826C24.0417 36.5167 22.9783 36.0817 22.031 35.521C21.103 34.941 20.2523 34.2643 19.479 33.491L22.176 29.895C23.394 31.113 24.612 31.9637 25.83 32.447C27.0673 32.911 28.295 33.143 29.513 33.143C30.0737 33.143 30.615 33.085 31.137 32.969C31.6783 32.8337 32.1133 32.621 32.442 32.331C32.7707 32.041 32.935 31.664 32.935 31.2C32.935 30.8907 32.848 30.6297 32.674 30.417C32.5 30.185 32.2583 29.9917 31.949 29.837C31.6397 29.6823 31.2723 29.547 30.847 29.431C30.441 29.315 30.006 29.2183 29.542 29.141C29.0973 29.0443 28.6237 28.9573 28.121 28.88C26.903 28.6867 25.8203 28.416 24.873 28.068C23.945 27.72 23.162 27.285 22.524 26.763C21.886 26.241 21.393 25.632 21.045 24.936C20.7163 24.24 20.552 23.4473 20.552 22.558C20.552 21.6107 20.7743 20.7503 21.219 19.977C21.683 19.1843 22.3113 18.5173 23.104 17.976C23.8967 17.4153 24.815 16.99 25.859 16.7C26.903 16.3907 28.005 16.236 29.165 16.236C30.557 16.236 31.7653 16.3713 32.79 16.642C33.834 16.9127 34.7427 17.2993 35.516 17.802C36.2893 18.2853 36.937 18.8557 37.459 19.513L34.704 22.645C34.2207 22.1617 33.6793 21.7557 33.08 21.427C32.4807 21.0983 31.8427 20.847 31.166 20.673C30.5087 20.499 29.8417 20.412 29.165 20.412C28.4883 20.412 27.889 20.4893 27.367 20.644C26.845 20.7793 26.4293 20.9823 26.12 21.253C25.8107 21.5237 25.656 21.862 25.656 22.268C25.656 22.616 25.7817 22.9157 26.033 23.167C26.2843 23.399 26.613 23.602 27.019 23.776C27.4443 23.95 27.918 24.095 28.44 24.211C28.962 24.3077 29.484 24.3947 30.006 24.472C31.108 24.646 32.1423 24.878 33.109 25.168C34.0757 25.4387 34.9263 25.806 35.661 26.27C36.3957 26.7147 36.966 27.2947 37.372 28.01C37.7973 28.706 38.01 29.576 38.01 30.62C38.01 32.0313 37.6233 33.2397 36.85 34.245C36.096 35.231 35.0617 35.985 33.747 36.507C32.4323 37.029 30.9243 37.29 29.223 37.29ZM53.5189 37.29C51.9142 37.29 50.4159 37.0387 49.0239 36.536C47.6512 36.014 46.4429 35.289 45.3989 34.361C44.3742 33.433 43.5815 32.331 43.0209 31.055C42.4602 29.7597 42.1799 28.329 42.1799 26.763C42.1799 25.2357 42.4699 23.834 43.0499 22.558C43.6492 21.282 44.4612 20.18 45.4859 19.252C46.5105 18.324 47.7189 17.599 49.1109 17.077C50.5029 16.555 52.0012 16.294 53.6059 16.294C54.7079 16.294 55.7712 16.4293 56.7959 16.7C57.8399 16.9707 58.8065 17.3477 59.6959 17.831C60.5852 18.3143 61.3392 18.8653 61.9579 19.484L59.0289 23.138C58.5649 22.6933 58.0622 22.3067 57.5209 21.978C56.9796 21.63 56.3706 21.3593 55.6939 21.166C55.0172 20.9533 54.2729 20.847 53.4609 20.847C52.6682 20.847 51.8949 20.9823 51.1409 21.253C50.3869 21.5237 49.7199 21.92 49.1399 22.442C48.5599 22.9447 48.0959 23.573 47.7479 24.327C47.4192 25.0617 47.2549 25.893 47.2549 26.821C47.2549 27.749 47.4289 28.5803 47.7769 29.315C48.1249 30.0497 48.5985 30.678 49.1979 31.2C49.8165 31.7027 50.5319 32.0893 51.3439 32.36C52.1559 32.6307 53.0356 32.766 53.9829 32.766C54.8142 32.766 55.5682 32.65 56.2449 32.418C56.9216 32.186 57.5306 31.9057 58.0719 31.577C58.6132 31.229 59.0966 30.8617 59.5219 30.475L61.8709 34.274C61.3489 34.7767 60.6529 35.26 59.7829 35.724C58.9129 36.188 57.9366 36.565 56.8539 36.855C55.7712 37.145 54.6596 37.29 53.5189 37.29ZM21.538 73V52.7H30.963C32.6063 52.7 34.095 52.961 35.429 53.483C36.763 53.9857 37.9037 54.701 38.851 55.629C39.8177 56.557 40.5523 57.6397 41.055 58.877C41.5577 60.095 41.809 61.4193 41.809 62.85C41.809 64.3 41.5577 65.6437 41.055 66.881C40.5523 68.1183 39.8177 69.1913 38.851 70.1C37.9037 71.0087 36.763 71.724 35.429 72.246C34.095 72.7487 32.6063 73 30.963 73H21.538ZM26.468 69.636L25.801 68.65H30.818C31.7847 68.65 32.6353 68.505 33.37 68.215C34.1047 67.9057 34.7137 67.49 35.197 66.968C35.6997 66.446 36.0863 65.837 36.357 65.141C36.6277 64.445 36.763 63.6813 36.763 62.85C36.763 62.038 36.6277 61.284 36.357 60.588C36.0863 59.8727 35.6997 59.254 35.197 58.732C34.7137 58.21 34.1047 57.804 33.37 57.514C32.6353 57.2047 31.7847 57.05 30.818 57.05H25.714L26.468 56.122V69.636ZM57.657 73.29C55.9557 73.29 54.409 73.029 53.017 72.507C51.6444 71.985 50.436 71.2503 49.392 70.303C48.3674 69.3363 47.5747 68.215 47.014 66.939C46.4534 65.663 46.173 64.271 46.173 62.763C46.173 61.255 46.4534 59.863 47.014 58.587C47.5747 57.311 48.3674 56.1993 49.392 55.252C50.436 54.2853 51.6444 53.541 53.017 53.019C54.409 52.497 55.946 52.236 57.628 52.236C59.2907 52.236 60.818 52.497 62.21 53.019C63.602 53.541 64.8104 54.2853 65.835 55.252C66.8597 56.1993 67.6524 57.311 68.213 58.587C68.7737 59.863 69.054 61.255 69.054 62.763C69.054 64.2517 68.7737 65.6437 68.213 66.939C67.6524 68.215 66.8597 69.3363 65.835 70.303C64.8104 71.2503 63.602 71.985 62.21 72.507C60.818 73.029 59.3004 73.29 57.657 73.29ZM57.628 68.65C58.556 68.65 59.4067 68.505 60.18 68.215C60.9727 67.925 61.659 67.519 62.239 66.997C62.819 66.4557 63.2637 65.8273 63.573 65.112C63.8824 64.3967 64.037 63.6137 64.037 62.763C64.037 61.9123 63.8824 61.1293 63.573 60.414C63.2637 59.6987 62.819 59.08 62.239 58.558C61.659 58.0167 60.9727 57.601 60.18 57.311C59.4067 57.021 58.556 56.876 57.628 56.876C56.7 56.876 55.8397 57.021 55.047 57.311C54.2737 57.601 53.5874 58.0167 52.988 58.558C52.408 59.0993 51.9634 59.7277 51.654 60.443C51.364 61.1583 51.219 61.9317 51.219 62.763C51.219 63.6137 51.364 64.3967 51.654 65.112C51.9634 65.8273 52.408 66.4557 52.988 66.997C53.5874 67.519 54.2737 67.925 55.047 68.215C55.8397 68.505 56.7 68.65 57.628 68.65Z" fill="white"/>
</svg>
