<svg width="112" height="96" viewBox="0 0 112 96" fill="none" xmlns="http://www.w3.org/2000/svg">
<rect x="5" y="5" width="93.3333" height="90.2222" rx="8" fill="#A3AFBF"/>
<rect x="0.666668" width="93.3333" height="90.2222" rx="8" fill="#2C75E1"/>
<rect x="83" y="11" width="5" height="68" rx="2.33333" fill="#F7F5F5"/>
<rect x="84" y="52" width="3.11111" height="26.4444" rx="1.5" fill="#2C75E1"/>
<path d="M29.223 37.29C27.7537 37.29 26.4197 37.1353 25.221 36.826C24.0417 36.5167 22.9783 36.0817 22.031 35.521C21.103 34.941 20.2523 34.2643 19.479 33.491L22.176 29.895C23.394 31.113 24.612 31.9637 25.83 32.447C27.0673 32.911 28.295 33.143 29.513 33.143C30.0737 33.143 30.615 33.085 31.137 32.969C31.6783 32.8337 32.1133 32.621 32.442 32.331C32.7707 32.041 32.935 31.664 32.935 31.2C32.935 30.8907 32.848 30.6297 32.674 30.417C32.5 30.185 32.2583 29.9917 31.949 29.837C31.6397 29.6823 31.2723 29.547 30.847 29.431C30.441 29.315 30.006 29.2183 29.542 29.141C29.0973 29.0443 28.6237 28.9573 28.121 28.88C26.903 28.6867 25.8203 28.416 24.873 28.068C23.945 27.72 23.162 27.285 22.524 26.763C21.886 26.241 21.393 25.632 21.045 24.936C20.7163 24.24 20.552 23.4473 20.552 22.558C20.552 21.6107 20.7743 20.7503 21.219 19.977C21.683 19.1843 22.3113 18.5173 23.104 17.976C23.8967 17.4153 24.815 16.99 25.859 16.7C26.903 16.3907 28.005 16.236 29.165 16.236C30.557 16.236 31.7653 16.3713 32.79 16.642C33.834 16.9127 34.7427 17.2993 35.516 17.802C36.2893 18.2853 36.937 18.8557 37.459 19.513L34.704 22.645C34.2207 22.1617 33.6793 21.7557 33.08 21.427C32.4807 21.0983 31.8427 20.847 31.166 20.673C30.5087 20.499 29.8417 20.412 29.165 20.412C28.4883 20.412 27.889 20.4893 27.367 20.644C26.845 20.7793 26.4293 20.9823 26.12 21.253C25.8107 21.5237 25.656 21.862 25.656 22.268C25.656 22.616 25.7817 22.9157 26.033 23.167C26.2843 23.399 26.613 23.602 27.019 23.776C27.4443 23.95 27.918 24.095 28.44 24.211C28.962 24.3077 29.484 24.3947 30.006 24.472C31.108 24.646 32.1423 24.878 33.109 25.168C34.0757 25.4387 34.9263 25.806 35.661 26.27C36.3957 26.7147 36.966 27.2947 37.372 28.01C37.7973 28.706 38.01 29.576 38.01 30.62C38.01 32.0313 37.6233 33.2397 36.85 34.245C36.096 35.231 35.0617 35.985 33.747 36.507C32.4323 37.029 30.9243 37.29 29.223 37.29ZM53.5189 37.29C51.9142 37.29 50.4159 37.0387 49.0239 36.536C47.6512 36.014 46.4429 35.289 45.3989 34.361C44.3742 33.433 43.5815 32.331 43.0209 31.055C42.4602 29.7597 42.1799 28.329 42.1799 26.763C42.1799 25.2357 42.4699 23.834 43.0499 22.558C43.6492 21.282 44.4612 20.18 45.4859 19.252C46.5105 18.324 47.7189 17.599 49.1109 17.077C50.5029 16.555 52.0012 16.294 53.6059 16.294C54.7079 16.294 55.7712 16.4293 56.7959 16.7C57.8399 16.9707 58.8065 17.3477 59.6959 17.831C60.5852 18.3143 61.3392 18.8653 61.9579 19.484L59.0289 23.138C58.5649 22.6933 58.0622 22.3067 57.5209 21.978C56.9796 21.63 56.3706 21.3593 55.6939 21.166C55.0172 20.9533 54.2729 20.847 53.4609 20.847C52.6682 20.847 51.8949 20.9823 51.1409 21.253C50.3869 21.5237 49.7199 21.92 49.1399 22.442C48.5599 22.9447 48.0959 23.573 47.7479 24.327C47.4192 25.0617 47.2549 25.893 47.2549 26.821C47.2549 27.749 47.4289 28.5803 47.7769 29.315C48.1249 30.0497 48.5985 30.678 49.1979 31.2C49.8165 31.7027 50.5319 32.0893 51.3439 32.36C52.1559 32.6307 53.0356 32.766 53.9829 32.766C54.8142 32.766 55.5682 32.65 56.2449 32.418C56.9216 32.186 57.5306 31.9057 58.0719 31.577C58.6132 31.229 59.0966 30.8617 59.5219 30.475L61.8709 34.274C61.3489 34.7767 60.6529 35.26 59.7829 35.724C58.9129 36.188 57.9366 36.565 56.8539 36.855C55.7712 37.145 54.6596 37.29 53.5189 37.29ZM21.538 73V52.7H30.963C32.6063 52.7 34.095 52.961 35.429 53.483C36.763 53.9857 37.9037 54.701 38.851 55.629C39.8177 56.557 40.5523 57.6397 41.055 58.877C41.5577 60.095 41.809 61.4193 41.809 62.85C41.809 64.3 41.5577 65.6437 41.055 66.881C40.5523 68.1183 39.8177 69.1913 38.851 70.1C37.9037 71.0087 36.763 71.724 35.429 72.246C34.095 72.7487 32.6063 73 30.963 73H21.538ZM26.468 69.636L25.801 68.65H30.818C31.7847 68.65 32.6353 68.505 33.37 68.215C34.1047 67.9057 34.7137 67.49 35.197 66.968C35.6997 66.446 36.0863 65.837 36.357 65.141C36.6277 64.445 36.763 63.6813 36.763 62.85C36.763 62.038 36.6277 61.284 36.357 60.588C36.0863 59.8727 35.6997 59.254 35.197 58.732C34.7137 58.21 34.1047 57.804 33.37 57.514C32.6353 57.2047 31.7847 57.05 30.818 57.05H25.714L26.468 56.122V69.636ZM57.657 73.29C55.9557 73.29 54.409 73.029 53.017 72.507C51.6444 71.985 50.436 71.2503 49.392 70.303C48.3674 69.3363 47.5747 68.215 47.014 66.939C46.4534 65.663 46.173 64.271 46.173 62.763C46.173 61.255 46.4534 59.863 47.014 58.587C47.5747 57.311 48.3674 56.1993 49.392 55.252C50.436 54.2853 51.6444 53.541 53.017 53.019C54.409 52.497 55.946 52.236 57.628 52.236C59.2907 52.236 60.818 52.497 62.21 53.019C63.602 53.541 64.8104 54.2853 65.835 55.252C66.8597 56.1993 67.6524 57.311 68.213 58.587C68.7737 59.863 69.054 61.255 69.054 62.763C69.054 64.2517 68.7737 65.6437 68.213 66.939C67.6524 68.215 66.8597 69.3363 65.835 70.303C64.8104 71.2503 63.602 71.985 62.21 72.507C60.818 73.029 59.3004 73.29 57.657 73.29ZM57.628 68.65C58.556 68.65 59.4067 68.505 60.18 68.215C60.9727 67.925 61.659 67.519 62.239 66.997C62.819 66.4557 63.2637 65.8273 63.573 65.112C63.8824 64.3967 64.037 63.6137 64.037 62.763C64.037 61.9123 63.8824 61.1293 63.573 60.414C63.2637 59.6987 62.819 59.08 62.239 58.558C61.659 58.0167 60.9727 57.601 60.18 57.311C59.4067 57.021 58.556 56.876 57.628 56.876C56.7 56.876 55.8397 57.021 55.047 57.311C54.2737 57.601 53.5874 58.0167 52.988 58.558C52.408 59.0993 51.9634 59.7277 51.654 60.443C51.364 61.1583 51.219 61.9317 51.219 62.763C51.219 63.6137 51.364 64.3967 51.654 65.112C51.9634 65.8273 52.408 66.4557 52.988 66.997C53.5874 67.519 54.2737 67.925 55.047 68.215C55.8397 68.505 56.7 68.65 57.628 68.65Z" fill="white"/>
</svg>
